<?xml version="1.0" encoding="UTF-8" standalone="no"?>
<!DOCTYPE svg PUBLIC "-//W3C//DTD SVG 1.1//EN" "http://www.w3.org/Graphics/SVG/1.1/DTD/svg11.dtd">
<svg width="100%" height="100%" viewBox="0 0 16 16" version="1.1" xmlns="http://www.w3.org/2000/svg" xmlns:xlink="http://www.w3.org/1999/xlink" xml:space="preserve" xmlns:serif="http://www.serif.com/" style="fill-rule:evenodd;clip-rule:evenodd;stroke-linejoin:round;stroke-miterlimit:2;">
    <g transform="matrix(0.0147007,0,0,0.0147007,0.858728,0.882745)">
        <g transform="matrix(1.28362,0,0,1.28296,-156.034,243.715)">
            <path d="M499.965,-0.33L274.618,129.684L274.618,385.325L499.959,517.361L725.382,386.693L725.382,128.672L499.965,-0.33ZM661.929,388.798C653.072,389.675 508.482,410.1 508.017,410.566C507.736,410.846 507.642,426.318 507.736,445.092L508.007,478.02L661.929,388.798ZM340.645,389.242L491.988,477.92L492.259,445.087C492.358,426.318 492.259,410.842 491.978,410.561C491.697,410.28 456.978,405.282 414.807,399.431C380.598,394.599 350.943,390.577 340.645,389.242ZM660.659,278.96C677.546,327.169 691.509,367.172 691.696,367.827C691.977,369.148 661.788,373.678 530.468,391.791L514.143,393.96L517.727,387.735C539.897,347.924 628.863,191.6 629.331,191.507C629.622,191.502 643.679,230.844 660.659,278.96ZM428.11,292.07C459.428,347.353 484.807,392.826 484.526,393.206C483.865,393.866 309.24,369.809 308.387,368.961C307.727,368.3 369.806,191.502 370.654,191.502C370.94,191.595 396.88,236.788 428.11,292.07ZM614.904,185.745C567.641,269.427 500.377,387.641 499.998,387.735C499.618,387.735 400.937,214.238 385.559,186.597L381.976,180.18L618.019,180.18L614.904,185.745ZM695.285,241.692C695.285,290.562 695.097,330.279 694.905,330.092C694.338,329.619 641.791,179.993 641.318,177.918C641.131,176.69 646.789,173.767 667.451,164.615C681.982,158.197 694.151,152.918 694.619,152.82C695.004,152.82 695.285,192.823 695.285,241.692ZM332.352,164.615C352.447,173.482 358.864,176.69 358.672,177.824C358.391,179.426 307.54,324.054 305.746,328.298C305.085,329.9 304.804,303.106 304.804,241.692C304.71,192.823 304.898,152.825 305.184,152.825C305.465,152.82 317.728,158.104 332.352,164.615ZM557.453,100.653L614.15,164.615L557.074,164.896C525.657,164.989 474.338,164.989 442.921,164.896L385.845,164.615L442.547,100.653C473.677,65.554 499.524,36.784 499.998,36.784C500.377,36.784 526.224,65.554 557.453,100.653ZM460.724,56.945L316.278,140.284C319,141.973 327.011,145.78 339.715,151.41C353.866,157.635 365.75,162.825 366.129,163.013C366.504,163.2 388.299,139.048 414.62,109.426C436.931,84.315 455.651,62.93 460.724,56.945ZM538.476,56.275C547.339,66.677 631.934,162.091 632.919,162.628C633.299,162.914 645.281,157.911 659.619,151.592L685.243,140.267L538.476,56.275Z" style="fill:rgb(66,66,66);"/>
        </g>
        <path d="M67.865,230.5L28.032,230.5C17.354,230.5 8.699,221.844 8.699,211.166L8.699,26.451C8.699,15.773 17.354,7.118 28.032,7.118L943.521,7.118C954.199,7.118 962.855,15.773 962.855,26.451L962.855,211.166C962.855,221.844 954.199,230.5 943.521,230.5L903.688,230.5L903.688,939.596C903.688,950.274 895.032,958.929 884.355,958.929L87.198,958.929C76.521,958.929 67.865,950.274 67.865,939.596L67.865,230.5ZM106.532,230.5L106.532,920.263L865.021,920.263L865.021,230.5L106.532,230.5ZM47.365,45.784L47.365,191.833L924.188,191.833L924.188,45.784L47.365,45.784Z" style="fill:rgb(66,66,66);"/>
    </g>
</svg>
