<?xml version="1.0" encoding="UTF-8" standalone="no"?>
<!DOCTYPE svg PUBLIC "-//W3C//DTD SVG 1.1//EN" "http://www.w3.org/Graphics/SVG/1.1/DTD/svg11.dtd">
<svg width="100%" height="100%" viewBox="0 0 16 16" version="1.1" xmlns="http://www.w3.org/2000/svg" xmlns:xlink="http://www.w3.org/1999/xlink" xml:space="preserve" xmlns:serif="http://www.serif.com/" style="fill-rule:evenodd;clip-rule:evenodd;stroke-linejoin:round;stroke-miterlimit:2;">
    <g transform="matrix(0.0147007,0,0,0.0147007,0.858728,0.882745)">
        <g transform="matrix(1.28362,0,0,1.28296,-156.033,169.755)">
            <path d="M499.965,-0.33L274.618,129.684L274.618,385.325L499.959,517.361L725.382,386.693L725.382,128.672L499.965,-0.33ZM661.929,388.798C653.072,389.675 508.482,410.1 508.017,410.566C507.736,410.846 507.642,426.318 507.736,445.092L508.007,478.02L661.929,388.798ZM340.645,389.242L491.988,477.92L492.259,445.087C492.358,426.318 492.259,410.842 491.978,410.561C491.697,410.28 456.978,405.282 414.807,399.431C380.598,394.599 350.943,390.577 340.645,389.242ZM660.659,278.96C677.546,327.169 691.509,367.172 691.696,367.827C691.977,369.148 661.788,373.678 530.468,391.791L514.143,393.96L517.727,387.735C539.897,347.924 628.863,191.6 629.331,191.507C629.622,191.502 643.679,230.844 660.659,278.96ZM428.11,292.07C459.428,347.353 484.807,392.826 484.526,393.206C483.865,393.866 309.24,369.809 308.387,368.961C307.727,368.3 369.806,191.502 370.654,191.502C370.94,191.595 396.88,236.788 428.11,292.07ZM614.904,185.745C567.641,269.427 500.377,387.641 499.998,387.735C499.618,387.735 400.937,214.238 385.559,186.597L381.976,180.18L618.019,180.18L614.904,185.745ZM695.285,241.692C695.285,290.562 695.097,330.279 694.905,330.092C694.338,329.619 641.791,179.993 641.318,177.918C641.131,176.69 646.789,173.767 667.451,164.615C681.982,158.197 694.151,152.918 694.619,152.82C695.004,152.82 695.285,192.823 695.285,241.692ZM332.352,164.615C352.447,173.482 358.864,176.69 358.672,177.824C358.391,179.426 307.54,324.054 305.746,328.298C305.085,329.9 304.804,303.106 304.804,241.692C304.71,192.823 304.898,152.825 305.184,152.825C305.465,152.82 317.728,158.104 332.352,164.615ZM557.453,100.653L614.15,164.615L557.074,164.896C525.657,164.989 474.338,164.989 442.921,164.896L385.845,164.615L442.547,100.653C473.677,65.554 499.524,36.784 499.998,36.784C500.377,36.784 526.224,65.554 557.453,100.653ZM460.724,56.945L316.278,140.284C319,141.973 327.011,145.78 339.715,151.41C353.866,157.635 365.75,162.825 366.129,163.013C366.504,163.2 388.299,139.048 414.62,109.426C436.931,84.315 455.651,62.93 460.724,56.945ZM538.476,56.275C547.339,66.677 631.934,162.091 632.919,162.628C633.299,162.914 645.281,157.911 659.619,151.592L685.243,140.267L538.476,56.275Z" style="fill:rgb(66,66,66);"/>
        </g>
        <g transform="matrix(68.0239,0,0,68.0239,-58.414,-60.0478)">
            <path d="M4.534,0.974L13.686,0.974C13.922,0.974 14.114,1.166 14.114,1.402L14.114,14.523C14.114,14.759 13.922,14.951 13.686,14.951C13.686,14.951 2.341,14.951 2.341,14.951C2.105,14.951 1.913,14.759 1.913,14.523L1.913,3.373L1.914,3.346L1.918,3.324L1.921,3.311L1.926,3.292L1.933,3.273L1.937,3.265C1.944,3.249 1.953,3.234 1.964,3.221L1.979,3.203L1.993,3.189L1.995,3.187L4.365,1.039L4.379,1.027L4.393,1.017C4.404,1.009 4.415,1.003 4.427,0.997L4.446,0.989L4.467,0.983L4.489,0.978L4.51,0.975L4.528,0.974C4.53,0.974 4.532,0.974 4.534,0.974ZM4.783,1.474L4.783,3.329C4.783,3.465 4.674,3.576 4.538,3.579L2.413,3.618L2.413,14.451L13.614,14.451L13.614,1.474L4.783,1.474ZM4.283,1.788L2.824,3.11L4.283,3.083L4.283,1.788Z" style="fill:rgb(66,66,66);"/>
        </g>
    </g>
</svg>
