<?xml version="1.0" encoding="UTF-8" standalone="no"?>
<!DOCTYPE svg PUBLIC "-//W3C//DTD SVG 1.1//EN" "http://www.w3.org/Graphics/SVG/1.1/DTD/svg11.dtd">
<svg width="100%" height="100%" viewBox="0 0 2480 150" version="1.1" xmlns="http://www.w3.org/2000/svg" xmlns:xlink="http://www.w3.org/1999/xlink" xml:space="preserve" xmlns:serif="http://www.serif.com/" style="fill-rule:evenodd;clip-rule:evenodd;stroke-linecap:round;stroke-linejoin:round;stroke-miterlimit:1.5;">
    <g transform="matrix(-0.9712,0,0,0.998613,2478.28,-3156.88)">
        <path d="M2551.77,3282.16C2551.77,3282.16 2506.83,3204.07 2360.36,3204.76C1996.47,3206.48 414.131,3204.98 212.571,3204.22C199.111,3204.17 186.291,3209.93 177.391,3220.03C169.641,3228.83 161.551,3238.01 161.551,3238.01C161.551,3238.01 94.177,3329.27 0,3239.47" style="fill:none;stroke:rgb(174,164,26);stroke-width:3.54px;"/>
    </g>
    <g transform="matrix(-0.9712,0,0,0.998613,2478.28,-3156.88)">
        <path d="M2551.77,3190.57C2551.77,3190.57 2484.55,3194.93 2482.02,3245.33C2482.02,3245.33 2451.64,3216.14 2376.4,3217.65L161.582,3217.65C161.582,3217.65 91.881,3322.32 1.771,3224.26" style="fill:none;stroke:rgb(174,164,26);stroke-width:3.54px;"/>
    </g>
</svg>
