<?xml version="1.0" encoding="UTF-8" standalone="no"?>
<!DOCTYPE svg PUBLIC "-//W3C//DTD SVG 1.1//EN" "http://www.w3.org/Graphics/SVG/1.1/DTD/svg11.dtd">
<svg width="100%" height="100%" viewBox="0 0 32 32" version="1.1" xmlns="http://www.w3.org/2000/svg" xmlns:xlink="http://www.w3.org/1999/xlink" xml:space="preserve" xmlns:serif="http://www.serif.com/" style="fill-rule:evenodd;clip-rule:evenodd;stroke-linejoin:round;stroke-miterlimit:2;">
    <g transform="matrix(36.4721,0,0,36.4721,4.78055,29.2585)">
        <path d="M0.238,-0.141L0.384,-0.141L0.384,0L0.238,0L0.238,-0.141ZM0.06,-0.493C0.064,-0.585 0.096,-0.651 0.157,-0.69C0.196,-0.715 0.243,-0.727 0.299,-0.727C0.372,-0.727 0.434,-0.709 0.482,-0.674C0.531,-0.639 0.555,-0.587 0.555,-0.518C0.555,-0.476 0.545,-0.44 0.523,-0.411C0.511,-0.394 0.487,-0.371 0.452,-0.344L0.417,-0.317C0.399,-0.302 0.386,-0.285 0.38,-0.266C0.376,-0.253 0.374,-0.234 0.374,-0.208L0.242,-0.208C0.244,-0.263 0.249,-0.301 0.257,-0.322C0.266,-0.343 0.288,-0.367 0.323,-0.395L0.358,-0.422C0.37,-0.431 0.38,-0.441 0.387,-0.451C0.4,-0.469 0.406,-0.489 0.406,-0.51C0.406,-0.535 0.399,-0.558 0.385,-0.578C0.37,-0.598 0.344,-0.608 0.305,-0.608C0.267,-0.608 0.241,-0.596 0.225,-0.571C0.209,-0.546 0.201,-0.52 0.201,-0.493L0.06,-0.493Z" style="fill:white;fill-rule:nonzero;"/>
    </g>
</svg>
